{
  "source": "C:\\Users\\Peter\\Desktop\\stuff\\MIUN\\quantitative_research\\video_compression\\videos\\BVI-HD\\BVI-HD_CDVL_videos\\ORIG\\FishAndRock_1920x1080_30fps.mp4",
  "output": "C:\\Users\\Peter\\Desktop\\stuff\\MIUN\\quantitative_research\\video_compression\\compressed_videos\\BVI-HD\\av1\\2.5\\FishAndRock_1920x1080_30fps_av1.mkv",
  "codec": "av1",
  "ok": "Input #0, mov,mp4,m4a,3gp,3g2,mj2, from 'C:\\Users\\Peter\\Desktop\\stuff\\MIUN\\quantitative_research\\video_compression\\videos\\BVI-HD\\BVI-HD_CDVL_videos\\ORIG\\FishAndRock_1920x1080_30fps.mp4':\n  Metadata:\n    major_brand     : isom\n    minor_version   : 512\n    compatible_brands: isomiso2avc1mp41\n    encoder         : Lavf54.28.101\n  Duration: 00:00:05.00, start: 0.000000, bitrate: 251564 kb/s\n  Stream #0:0[0x1](und): Video: h264 (High 4:4:4 Predictive) (avc1 / 0x31637661), yuv420p(progressive), 1920x1080, 251561 kb/s, 30 fps, 30 tbr, 30 tbn (default)\n    Metadata:\n      handler_name    : VideoHandler\n      vendor_id       : [0][0][0][0]\n[out#0/matroska @ 000002c2b8fe8fc0] Codec AVOption b:a (set bitrate (in bits/s)) has not been used for any stream. The most likely reason is either wrong type (e.g. a video option with no video streams) or that it is a private option of some decoder which was not actually used for any stream.\nStream mapping:\n  Stream #0:0 -> #0:0 (h264 (native) -> av1 (libsvtav1))\nPress [q] to stop, [?] for help\nSvt[info]: -------------------------------------------\nSvt[info]: SVT [version]:\tSVT-AV1 Encoder Lib v3.1.0-19-g6ecfe8ec\nSvt[info]: SVT [build]  :\tGCC 15.2.0\t 64 bit\nSvt[info]: LIB Build date: Aug 17 2025 11:37:13\nSvt[info]: -------------------------------------------\nSvt[info]: Level of Parallelism: 5\nSvt[info]: Number of PPCS 93\nSvt[info]: [asm level on system : up to avx2]\nSvt[info]: [asm level selected : up to avx2]\nSvt[info]: -------------------------------------------\nSvt[info]: SVT [config]: main profile\ttier (auto)\tlevel (auto)\nSvt[info]: SVT [config]: width / height / fps numerator / fps denominator \t\t: 1920 / 1080 / 30 / 1\nSvt[info]: SVT [config]: bit-depth / color format \t\t\t\t\t: 8 / YUV420\nSvt[info]: SVT [config]: preset / tune / pred struct \t\t\t\t\t: 4 / PSNR / random access\nSvt[info]: SVT [config]: gop size / mini-gop size / key-frame type \t\t\t: 161 / 16 / key frame\nSvt[info]: SVT [config]: BRC mode / target bitrate (kbps)\t\t\t\t: VBR / 2500 \nSvt[info]: SVT [config]: AQ mode / Variance Boost \t\t\t\t\t: 2 / 0\nSvt[info]: SVT [config]: sharpness / luminance-based QP bias \t\t\t\t: 0 / 0\nSvt[info]: SVT [config]: QP scale compress strength \t\t\t\t\t: 0\nSvt[info]: -------------------------------------------\nOutput #0, matroska, to 'C:\\Users\\Peter\\Desktop\\stuff\\MIUN\\quantitative_research\\video_compression\\compressed_videos\\BVI-HD\\av1\\2.5\\FishAndRock_1920x1080_30fps_av1.mkv':\n  Metadata:\n    major_brand     : isom\n    minor_version   : 512\n    compatible_brands: isomiso2avc1mp41\n    encoder         : Lavf62.3.100\n  Stream #0:0(und): Video: av1 (AV01 / 0x31305641), yuv420p(tv, progressive), 1920x1080, q=2-31, 2500 kb/s, 30 fps, 1k tbn (default)\n    Metadata:\n      encoder         : Lavc62.11.100 libsvtav1\n      handler_name    : VideoHandler\n      vendor_id       : [0][0][0][0]\n    Side data:\n      cpb: bitrate max/min/avg: 0/0/2500000 buffer size: 2500000 vbv_delay: N/A\nframe=    0 fps=0.0 q=0.0 size=       0KiB time=N/A bitrate=N/A speed=N/A elapsed=0:00:01.03    \nframe=    0 fps=0.0 q=0.0 size=       0KiB time=N/A bitrate=N/A speed=N/A elapsed=0:00:01.54    \nframe=    0 fps=0.0 q=0.0 size=       0KiB time=N/A bitrate=N/A speed=N/A elapsed=0:00:02.08    \nframe=    0 fps=0.0 q=0.0 size=       0KiB time=N/A bitrate=N/A speed=N/A elapsed=0:00:02.63    \nframe=    1 fps=0.3 q=18.0 size=       1KiB time=00:00:00.00 bitrate=N/A speed=   0x elapsed=0:00:03.15    \nframe=    1 fps=0.3 q=18.0 size=       1KiB time=00:00:00.00 bitrate=N/A speed=   0x elapsed=0:00:03.68    \nframe=    4 fps=0.9 q=36.0 size=       1KiB time=00:00:00.10 bitrate=  57.0kbits/s speed=0.0237x elapsed=0:00:04.21    \nframe=    7 fps=1.5 q=35.0 size=       1KiB time=00:00:00.20 bitrate=  28.5kbits/s speed=0.0422x elapsed=0:00:04.74    \nframe=   11 fps=2.1 q=33.0 size=       1KiB time=00:00:00.33 bitrate=  17.1kbits/s speed=0.0634x elapsed=0:00:05.25    \nframe=   16 fps=2.8 q=34.0 size=       1KiB time=00:00:00.50 bitrate=  11.4kbits/s speed=0.0866x elapsed=0:00:05.77    \nframe=   22 fps=3.5 q=33.0 size=       1KiB time=00:00:00.66 bitrate=   8.6kbits/s speed=0.106x elapsed=0:00:06.31    \nframe=   24 fps=3.5 q=33.0 size=       1KiB time=00:00:00.76 bitrate=   7.4kbits/s speed=0.112x elapsed=0:00:06.83    \nframe=   31 fps=4.2 q=32.0 size=       1KiB time=00:00:00.96 bitrate=   5.9kbits/s speed=0.131x elapsed=0:00:07.35    \nframe=   38 fps=4.8 q=35.0 size=       1KiB time=00:00:01.23 bitrate=   4.6kbits/s speed=0.156x elapsed=0:00:07.88    \nframe=   42 fps=5.0 q=34.0 size=       1KiB time=00:00:01.36 bitrate=   4.2kbits/s speed=0.162x elapsed=0:00:08.42    \nframe=   48 fps=5.4 q=35.0 size=       1KiB time=00:00:01.56 bitrate=   3.6kbits/s speed=0.175x elapsed=0:00:08.96    \nframe=   55 fps=5.8 q=35.0 size=       1KiB time=00:00:01.80 bitrate=   3.2kbits/s speed=0.19x elapsed=0:00:09.46    \nframe=   57 fps=5.7 q=29.0 size=       1KiB time=00:00:01.86 bitrate=   3.1kbits/s speed=0.187x elapsed=0:00:09.98    \nframe=   65 fps=6.2 q=17.0 size=       1KiB time=00:00:02.13 bitrate=   2.7kbits/s speed=0.203x elapsed=0:00:10.51    \nframe=   73 fps=6.6 q=30.0 size=       1KiB time=00:00:02.40 bitrate=   2.4kbits/s speed=0.218x elapsed=0:00:11.03    \nframe=   77 fps=6.7 q=33.0 size=       1KiB time=00:00:02.53 bitrate=   2.3kbits/s speed=0.219x elapsed=0:00:11.56    \nframe=   83 fps=6.9 q=34.0 size=       1KiB time=00:00:02.73 bitrate=   2.1kbits/s speed=0.226x elapsed=0:00:12.09    \nframe=   89 fps=7.1 q=28.0 size=       1KiB time=00:00:02.93 bitrate=   1.9kbits/s speed=0.233x elapsed=0:00:12.61    \nframe=   93 fps=7.1 q=31.0 size=       1KiB time=00:00:03.06 bitrate=   1.9kbits/s speed=0.234x elapsed=0:00:13.12    \nframe=  101 fps=7.4 q=34.0 size=       1KiB time=00:00:03.33 bitrate=   1.7kbits/s speed=0.244x elapsed=0:00:13.64    \nframe=  105 fps=7.4 q=29.0 size=       1KiB time=00:00:03.46 bitrate=   1.6kbits/s speed=0.245x elapsed=0:00:14.15    \nframe=  109 fps=7.4 q=31.0 size=       1KiB time=00:00:03.60 bitrate=   1.6kbits/s speed=0.245x elapsed=0:00:14.68    \nframe=  115 fps=7.6 q=36.0 size=       1KiB time=00:00:03.80 bitrate=   1.5kbits/s speed=0.25x elapsed=0:00:15.18    \nframe=  121 fps=7.7 q=30.0 size=       1KiB time=00:00:04.00 bitrate=   1.4kbits/s speed=0.255x elapsed=0:00:15.71    \nframe=  125 fps=7.7 q=31.0 size=       1KiB time=00:00:04.13 bitrate=   1.4kbits/s speed=0.255x elapsed=0:00:16.23    \nframe=  133 fps=7.9 q=38.0 size=       1KiB time=00:00:04.40 bitrate=   1.3kbits/s speed=0.263x elapsed=0:00:16.75    \nframe=  137 fps=7.9 q=33.0 size=       1KiB time=00:00:04.53 bitrate=   1.3kbits/s speed=0.262x elapsed=0:00:17.27    \n[out#0/matroska @ 000002c2b8fe8fc0] video:1429KiB audio:0KiB subtitle:0KiB other streams:0KiB global headers:0KiB muxing overhead: 0.099162%\nframe=  150 fps=8.5 q=38.0 Lsize=    1430KiB time=00:00:04.96 bitrate=2359.3kbits/s speed=0.281x elapsed=0:00:17.65    \n",
  "seconds": 18.10924196243286,
  "probe_out": {}
}